#N canvas 432 157 821 483 10;
#N canvas 0 22 450 300 (subpatch) 0;
#X array \$0-sampleL 38848 float 0;
#X coords 0 1 38847 -1 100 50 1 0 0;
#X restore 435 157 graph;
#X obj 433 89 samplerate~;
#X obj 433 113 s \$0-insamprate;
#N canvas 0 22 450 300 (subpatch) 0;
#X array \$0-sampleR 38848 float 0;
#X coords 0 1 38847 -1 100 50 1 0 0;
#X restore 542 158 graph;
#X obj 159 379 /;
#X obj 159 403 * 1000;
#X obj 159 426 s \$0-samp-msec;
#X obj 197 379 r \$0-insamprate;
#X obj 17 44 select 1 0;
#X obj 86 143 adc~ 1 2, f 10;
#X obj 85 184 writesf~ 2;
#X msg 17 99 start;
#X msg 198 71 stop;
#X obj 17 69 t b b, f 8;
#X msg 62 99 open /tmp/foo.wav;
#X obj 198 298 soundfiler;
#X floatatom 198 320 10 0 0 0 - - -;
#X obj 198 143 bng 15 250 50 0 empty empty empty 17 7 0 10 -262144
-1 -1;
#X obj 198 100 bng 15 250 50 0 empty empty empty 17 7 0 10 -262144
-1 -1;
#X obj 198 120 delay 100;
#X obj 198 195 symbol \$0-sampleL;
#X obj 243 217 symbol \$0-sampleR;
#X obj 198 164 t b b, f 8;
#X obj 198 242 pack s s;
#X msg 198 271 read -resize /tmp/foo.wav \$1 \$2;
#X obj 198 352 s \$0-sample-length;
#X obj 433 64 r pd-dsp-started;
#X obj 17 5 tgl 30 0 empty empty empty 17 7 0 10 -262130 -4034 -1 0
1;
#X obj 564 415 tabplay~ \$0-sampleL;
#X msg 572 343 bang;
#X msg 584 369 stop;
#X obj 564 449 dac~;
#X obj 686 415 tabplay~ \$0-sampleR;
#X connect 1 0 2 0;
#X connect 4 0 5 0;
#X connect 5 0 6 0;
#X connect 7 0 4 1;
#X connect 8 0 13 0;
#X connect 8 1 12 0;
#X connect 9 0 10 0;
#X connect 9 1 10 1;
#X connect 11 0 10 0;
#X connect 12 0 10 0;
#X connect 12 0 18 0;
#X connect 13 0 11 0;
#X connect 13 1 14 0;
#X connect 14 0 10 0;
#X connect 15 0 16 0;
#X connect 15 0 29 0;
#X connect 16 0 25 0;
#X connect 16 0 4 0;
#X connect 17 0 22 0;
#X connect 18 0 19 0;
#X connect 19 0 17 0;
#X connect 20 0 23 0;
#X connect 21 0 23 1;
#X connect 22 0 20 0;
#X connect 22 1 21 0;
#X connect 23 0 24 0;
#X connect 24 0 15 0;
#X connect 26 0 1 0;
#X connect 27 0 8 0;
#X connect 28 0 31 0;
#X connect 29 0 28 0;
#X connect 30 0 28 0;
#X connect 32 0 31 1;
