#N canvas 731 21 533 632 10;
#X obj 13 11 cnv 15 500 600 empty canvas_\$0 empty 0 0 0 14 #a0a0a0 #404040 0;
#N canvas 208 250 1075 708 insample 0;
#N canvas 0 100 450 300 (subpatch) 0;
#X array \$0-sampleL 155944 float 2;
#X coords 0 1 155944 -1 100 50 2 0 0;
#X restore 50 74 graph;
#X obj 385 87 samplerate~;
#X obj 385 111 s \$0-insamprate;
#X obj 269 412 /;
#X obj 269 436 * 1000;
#X obj 269 459 s \$0-samp-msec;
#X obj 307 412 r \$0-insamprate;
#X obj 365 29 select 1 0;
#X obj 316 178 adc~ 1 2;
#X obj 308 268 writesf~ 2;
#X msg 513 92 start;
#X msg 310 58 stop;
#X obj 513 62 t b b, f 8;
#X obj 308 331 soundfiler;
#X floatatom 308 353 10 0 0 0 - - - 0;
#X obj 316 135 bng 15 250 50 0 empty empty empty 17 7 0 10 #fcfcfc #000000 #000000;
#X obj 316 92 bng 15 250 50 0 empty empty empty 17 7 0 10 #fcfcfc #000000 #000000;
#X obj 316 112 delay 100;
#X obj 429 210 symbol \$0-sampleL;
#X obj 474 232 symbol \$0-sampleR;
#X obj 508 151 t b b;
#X obj 429 257 pack s s;
#X msg 308 304 read -resize /tmp/foo.wav \$1 \$2;
#X obj 308 385 s \$0-sample-length;
#X obj 133 20 tgl 30 0 empty empty Record\ Input -5 -10 0 10 #e3c6ff #fc8000 #0c4410 0 1;
#X obj 53 127 hsl 197 15 0 1 0 0 empty \$0-slider-time empty -2 -8 0 10 #7c7c7c #fc0400 #0c4410 0 1;
#N canvas 0 100 450 300 (subpatch) 0;
#X array \$0-sampleR 155944 float 2;
#X coords 0 1 155944 -1 100 50 2 0 0;
#X restore 152 74 graph;
#X obj 415 359 s \$0-speeds-rd-r;
#X msg 97 364 \; \$2 color \$1;
#X obj 95 263 bng 15 250 50 0 empty empty empty 17 7 0 10 #fcfcfc #000000 #000000;
#X obj 97 282 t b b;
#X obj 95 240 loadbang;
#X msg 117 504 canvas: cnv selectableSize xSize ySize sendName recieveName Label labelXOff labelYOff Font# fontSize bgColor lblColor 0;
#X msg 30 551 cnv 10 120 10 \$0canvas-color \$0-canvas-color-r Canvas_Demo 0 0 2 14 22 0, f 73;
#X obj 6 20 vu 15 120 \$6 Mic\ Input 0 -10 0 8 #404040 #000000 1 0;
#X obj 563 288 openpanel;
#X obj 62 20 bng 30 250 50 0 empty empty Open\ File -5 -10 0 10 #c7c6ff #0400fc #000000;
#X msg 744 479 read -resize \$1 \$2 \$3;
#X obj 627 191 symbol \$0-sampleL;
#X obj 672 154 bng 15 250 50 0 empty empty empty 17 7 0 10 #fcfcfc #000000 #000000;
#X msg 685 243 \; \$1 const 0;
#X obj 743 366 symbol \$0-sampleL;
#X obj 788 388 symbol \$0-sampleR;
#X obj 744 437 pack s s s;
#X obj 771 327 loadbang;
#X obj 724 327 bng 15 250 50 0 empty empty empty 17 7 0 10 #fcfcfc #000000 #000000;
#X obj 757 192 symbol \$0-sampleR;
#X obj 378 234 *~ 1;
#X obj 316 231 *~ 1;
#X msg 414 336 0;
#X obj 130 308 symbol canvas_\$0;
#X obj 97 339 pack 1 s;
#X text 746 508 write stereo;
#X obj 218 20 bng 30 250 50 0 empty empty Save\ as\ file -5 -10 0 10 #9c00ff #0400fc #000000;
#X obj 258 158 s savetoFile;
#N canvas 329 161 625 417 vu 0;
#X obj 59 129 env~ 1024;
#X obj 161 111 abs~;
#X obj 161 213 snapshot~;
#X obj 161 256 rmstodb;
#X obj 161 21 inlet~;
#X obj 161 288 - 100;
#X obj 59 287 - 100;
#X obj 59 361 outlet;
#X obj 161 361 outlet;
#X text 344 307 Check the help file of env~ and slop~ for more details., f 31;
#X obj 239 89 expr 1000 / $f1;
#X floatatom 239 117 5 0 0 0 - - - 0;
#X obj 161 146 slop~ 0 0 0 0 1e+09;
#X obj 239 18 inlet;
#X floatatom 239 57 5 0 0 0 - - - 0;
#X text 359 89 convert to hz;
#X text 282 118 hz;
#X text 284 57 peak decay time in ms;
#X obj 59 171 t f b;
#X text 345 132 The env~ object is dedicated to RMS analysis. Its output is in dB (0-100 range \, pd style) but needs to be converted to dBFS (and we do that by simply subtracting 100)., f 31;
#X text 345 225 The slop~ object is used here for peak detection. We need to convert the output to dB with rmstodb and also subtract by 100 to convert it to dBFS., f 31;
#X connect 0 0 18 0;
#X connect 1 0 12 0;
#X connect 2 0 3 0;
#X connect 3 0 5 0;
#X connect 4 0 0 0;
#X connect 4 0 1 0;
#X connect 5 0 8 0;
#X connect 6 0 7 0;
#X connect 10 0 11 0;
#X connect 11 0 12 3;
#X connect 12 0 2 0;
#X connect 13 0 14 0;
#X connect 14 0 10 0;
#X connect 18 0 6 0;
#X connect 18 1 2 0;
#X restore 229 261 pd vu;
#X msg 256 221 500;
#X msg 558 92 open /tmp/input.wav;
#X connect 1 0 2 0;
#X connect 3 0 4 0;
#X connect 4 0 5 0;
#X connect 6 0 3 1;
#X connect 7 0 12 0;
#X connect 7 0 39 0;
#X connect 7 1 11 0;
#X connect 8 0 48 0;
#X connect 8 0 55 0;
#X connect 8 1 47 0;
#X connect 10 0 9 0;
#X connect 11 0 9 0;
#X connect 11 0 16 0;
#X connect 12 0 10 0;
#X connect 12 1 57 0;
#X connect 12 1 1 0;
#X connect 13 0 14 0;
#X connect 13 0 49 0;
#X connect 14 0 23 0;
#X connect 14 0 3 0;
#X connect 15 0 20 0;
#X connect 16 0 17 0;
#X connect 17 0 15 0;
#X connect 18 0 21 0;
#X connect 19 0 21 1;
#X connect 20 0 18 0;
#X connect 20 1 19 0;
#X connect 21 0 22 0;
#X connect 22 0 13 0;
#X connect 24 0 7 0;
#X connect 24 0 48 1;
#X connect 24 0 47 1;
#X connect 29 0 30 0;
#X connect 30 0 51 0;
#X connect 30 1 50 0;
#X connect 31 0 29 0;
#X connect 31 0 56 0;
#X connect 35 0 43 0;
#X connect 36 0 35 0;
#X connect 37 0 13 0;
#X connect 38 0 40 0;
#X connect 39 0 38 0;
#X connect 39 0 46 0;
#X connect 41 0 43 1;
#X connect 42 0 43 2;
#X connect 43 0 37 0;
#X connect 44 0 42 0;
#X connect 44 0 41 0;
#X connect 45 0 41 0;
#X connect 45 0 42 0;
#X connect 46 0 40 0;
#X connect 47 0 9 1;
#X connect 48 0 9 0;
#X connect 49 0 27 0;
#X connect 50 0 51 1;
#X connect 51 0 28 0;
#X connect 53 0 54 0;
#X connect 55 0 34 0;
#X connect 55 1 34 1;
#X connect 56 0 55 1;
#X connect 57 0 9 0;
#X coords 0 -1 1 1 300 150 2 0 0;
#X restore 28 438 pd insample;
#N canvas 508 482 471 208 select 0;
#X obj 7 17 hradio 15 1 0 4 \$0-speeds-rd-s \$0-speeds-rd-r empty 0 -8 0 10 #7c7c7c #fc8000 #000000 0;
#X msg 235 71 100;
#X obj 235 42 select 0 1 2 3, f 20;
#X msg 264 71 0;
#X msg 293 71 500;
#X msg 322 71 -300;
#X obj 10 38 hsl 128 17 -300 500 0 0 \$0-speeds-sld-r \$0-speeds-sld-s empty -2 -8 0 10 #7c7c7c #fc8000 #fc0400 0 1;
#X text 42 2 Playback Speed Control;
#X obj 235 99 s \$0-speeds-msx;
#X obj 7 81 s \$0-widget_playbackSpeedControl;
#X obj 235 20 r \$0-speeds-rd-s;
#X obj 22 106 r \$0-speeds-msx;
#X floatatom 143 38 5 0 0 0 - - - 0;
#X connect 1 0 8 0;
#X connect 2 0 1 0;
#X connect 2 1 3 0;
#X connect 2 2 4 0;
#X connect 2 3 5 0;
#X connect 3 0 8 0;
#X connect 4 0 8 0;
#X connect 5 0 8 0;
#X connect 6 0 9 0;
#X connect 6 0 12 0;
#X connect 10 0 2 0;
#X connect 11 0 6 0;
#X connect 12 0 9 0;
#X coords 0 -1 1 1 200 60 2 0 0;
#X restore 212 85 pd select speed;
#N canvas 38 102 450 349 scrub 0;
#X floatatom 283 39 15 0 0 0 - - - 0;
#X obj 283 161 / 44.1;
#X obj 316 115 samplerate~;
#X obj 316 137 / 1000;
#X obj 316 94 bng 15 250 50 0 empty empty empty 17 7 0 10 #fcfcfc #000000 #000000;
#X obj 283 63 t f b;
#X obj 283 15 r \$0-sample-length;
#X floatatom 12 120 5 0 0 0 - - - 0;
#X obj 5 43 hsl 128 15 0 1 0 0 empty empty empty -2 -8 0 10 #7c7c7c #fc8000 #fc0400 0 1;
#X obj 12 94 expr $f1 * $f2;
#X text 144 1 Scrub;
#X floatatom 2 19 10 0 0 0 - \$0-location-set - 0;
#X obj 12 144 s \$0-widget_locationFromScrub;
#X text 0 2 Samples;
#X obj 152 242 bng 15 250 50 0 empty empty empty 17 7 0 10 #fcfcfc #000000 #000000;
#X obj 144 186 notein;
#X obj 145 213 select 0;
#X msg 152 262 0;
#X connect 0 0 5 0;
#X connect 1 0 9 1;
#X connect 2 0 3 0;
#X connect 3 0 1 1;
#X connect 4 0 2 0;
#X connect 5 0 1 0;
#X connect 5 1 4 0;
#X connect 6 0 0 0;
#X connect 7 0 12 0;
#X connect 8 0 9 0;
#X connect 9 0 7 0;
#X connect 14 0 17 0;
#X connect 15 1 16 0;
#X connect 16 1 14 0;
#X connect 17 0 7 0;
#X coords 0 -1 1 1 180 60 2 0 0;
#X restore 28 85 pd scrub;
#N canvas 892 387 466 348 noiseGate 0;
#X obj 5 37 hsl 128 15 0 20 0 0 empty empty empty -2 -8 0 10 #7c7c7c #fc8000 #fc0400 0 1;
#X text 0 1 Noise Gate;
#X obj 3 82 s \$0-noiseGate;
#X obj 163 2 bng 15 250 50 0 empty empty empty 17 7 0 10 #000000 #0400fc #000000;
#X text 124 2 Reset;
#X msg 162 77 0;
#X connect 0 0 2 0;
#X connect 3 0 5 0;
#X connect 5 0 0 0;
#X coords 0 0 1 1 180 60 2 0 0;
#X restore 28 151 pd noiseGate;
#N canvas 635 340 869 454 spectralEq 0;
#X obj 9 41 vsl 15 128 0 1 0 0 empty \$0-const empty 0 -9 0 10 #7c7c7c #fc8000 #000000 0 1;
#X obj 32 41 vsl 15 128 0 1 0 0 empty \$0-const empty 0 -9 0 10 #7c7c7c #fc8000 #000000 0 1;
#X obj 54 41 vsl 15 128 0 1 0 0 empty \$0-const empty 0 -9 0 10 #7c7c7c #fc8000 #000000 0 1;
#X obj 77 41 vsl 15 128 0 1 0 0 empty \$0-const empty 0 -9 0 10 #7c7c7c #fc8000 #000000 0 1;
#N canvas 661 131 1147 728 setValues 0;
#X obj 94 185 inlet;
#X msg 184 349 0;
#X floatatom 289 336 5 0 0 0 - - - 0;
#X floatatom 432 339 5 0 0 0 - - - 0;
#X floatatom 596 339 5 0 0 0 - - - 0;
#X obj 63 211 bng 15 250 50 0 empty empty empty 17 7 0 10 #fcfcfc #000000 #000000;
#X obj 216 212 bng 15 250 50 0 empty empty empty 17 7 0 10 #fcfcfc #000000 #000000;
#X obj 333 255 bng 15 250 50 0 empty empty empty 17 7 0 10 #fcfcfc #000000 #000000;
#X obj 509 238 bng 15 250 50 0 empty empty empty 17 7 0 10 #fcfcfc #000000 #000000;
#X obj 240 187 inlet;
#X obj 391 182 inlet;
#X obj 543 178 inlet;
#X floatatom 749 339 5 0 0 0 - - - 0;
#X obj 659 256 bng 15 250 50 0 empty empty empty 17 7 0 10 #fcfcfc #000000 #000000;
#X obj 694 179 inlet;
#X text 697 456 2048 in 4096 window mult by 4;
#X floatatom 445 619 5 0 0 0 - - - 0;
#X floatatom 492 618 8 0 0 0 - - - 0;
#X floatatom 548 618 8 0 0 0 - - - 0;
#X floatatom 606 618 8 0 0 0 - - - 0;
#X floatatom 408 618 0 0 0 0 - - - 0;
#X floatatom 555 516 5 0 0 0 - - - 0;
#X obj 555 491;
#X msg 554 463 22100;
#X text 605 462 Nyquist;
#X obj 553 439 loadbang;
#X obj 555 491 / 2048;
#X obj 495 592 * 0;
#X obj 445 592 * 0;
#X obj 409 593 * 0;
#X obj 543 591 * 0;
#X obj 593 591 * 0;
#X obj 184 377 + 32;
#X obj 341 381 + 40;
#X obj 500 389 + 160;
#X obj 657 384 + 320;
#X obj 50 409 array set \$0-gain;
#X obj 228 409 array set \$0-gain;
#X obj 379 425 array set \$0-gain;
#X obj 536 408 array set \$0-gain;
#X obj 690 409 array set \$0-gain;
#X text 137 620 0 350 800 2500 6000;
#X obj 50 379 array get \$0-eqLow;
#X obj 228 380 array get \$0-eqMid1;
#X obj 378 380 array get \$0-eqMid2;
#X obj 536 380 array get \$0-eqHigh;
#X obj 690 380 array get \$0-eqHighest;
#X obj 139 182 symbol \$0-eqLow;
#X obj 285 182 symbol \$0-eqMid1;
#X obj 436 179 symbol \$0-eqMid2;
#X obj 588 178 symbol \$0-eqHigh;
#X obj 739 176 symbol \$0-eqHighest;
#X obj 240 211 pack f s;
#X obj 391 205 pack f s;
#X obj 543 205 pack f s;
#X obj 694 205 pack f s;
#X obj 139 68 loadbang;
#X msg 94 238 \; \$2 const \$1 \;;
#X msg 240 238 \; \$2 const \$1 \;;
#X msg 391 238 \; \$2 const \$1 \;;
#X msg 543 238 \; \$2 const \$1 \;, f 13;
#X msg 694 238 \; \$2 const \$1 \;, f 14;
#X obj 94 211 pack f s;
#X obj 139 95 bng 15 250 50 0 empty empty empty 17 7 0 10 #fcfcfc #000000 #000000;
#X connect 0 0 5 0;
#X connect 0 0 62 0;
#X connect 1 0 29 0;
#X connect 1 0 32 0;
#X connect 1 0 36 1;
#X connect 2 0 28 0;
#X connect 2 0 33 0;
#X connect 2 0 37 1;
#X connect 3 0 27 0;
#X connect 3 0 34 0;
#X connect 3 0 38 1;
#X connect 4 0 30 0;
#X connect 4 0 35 0;
#X connect 4 0 39 1;
#X connect 5 0 1 0;
#X connect 5 0 42 0;
#X connect 6 0 1 0;
#X connect 6 0 43 0;
#X connect 7 0 1 0;
#X connect 7 0 44 0;
#X connect 8 0 1 0;
#X connect 8 0 45 0;
#X connect 9 0 6 0;
#X connect 9 0 52 0;
#X connect 10 0 7 0;
#X connect 10 0 53 0;
#X connect 11 0 8 0;
#X connect 11 0 54 0;
#X connect 12 0 31 0;
#X connect 12 0 40 1;
#X connect 13 0 1 0;
#X connect 13 0 46 0;
#X connect 14 0 13 0;
#X connect 14 0 55 0;
#X connect 21 0 27 1;
#X connect 21 0 28 1;
#X connect 21 0 29 1;
#X connect 21 0 30 1;
#X connect 21 0 31 1;
#X connect 23 0 26 0;
#X connect 25 0 23 0;
#X connect 26 0 21 0;
#X connect 27 0 17 0;
#X connect 28 0 16 0;
#X connect 29 0 20 0;
#X connect 30 0 18 0;
#X connect 31 0 19 0;
#X connect 32 0 2 0;
#X connect 33 0 3 0;
#X connect 34 0 4 0;
#X connect 35 0 12 0;
#X connect 42 0 36 0;
#X connect 43 0 37 0;
#X connect 44 0 38 0;
#X connect 45 0 39 0;
#X connect 46 0 40 0;
#X connect 47 0 62 1;
#X connect 48 0 52 1;
#X connect 49 0 53 1;
#X connect 50 0 54 1;
#X connect 51 0 55 1;
#X connect 52 0 58 0;
#X connect 53 0 59 0;
#X connect 54 0 60 0;
#X connect 55 0 61 0;
#X connect 56 0 63 0;
#X connect 62 0 57 0;
#X connect 63 0 51 0;
#X connect 63 0 49 0;
#X connect 63 0 48 0;
#X connect 63 0 47 0;
#X connect 63 0 50 0;
#X coords 0 728 1 727 280 17 0;
#X restore 9 209 pd setValues;
#X obj 101 41 vsl 15 128 0 1 0 0 empty \$0-const empty 0 -9 0 10 #7c7c7c #fc8000 #000000 0 1;
#N canvas 192 589 417 251 bandEqTables 0;
#N canvas 0 100 450 278 (subpatch) 0;
#X array \$0-eqLow 32 float 3;
#A 0 1 1 1 1 1 1 1 1 1 1 1 1 1 1 1 1 1 1 1 1 1 1 1 1 1 1 1 1 1 1 1 1;
#X coords 0 1 32 0 64 140 1 0 0;
#X restore 26 50 graph;
#N canvas 0 22 450 278 (subpatch) 0;
#X array \$0-eqMid1 40 float 3;
#A 0 1 1 1 1 1 1 1 1 1 1 1 1 1 1 1 1 1 1 1 1 1 1 1 1 1 1 1 1 1 1 1 1 1 1 1 1 1 1 1 1;
#X coords 0 1 40 0 64 140 1 0 0;
#X restore 90 50 graph;
#N canvas 0 22 450 278 (subpatch) 0;
#X array \$0-eqMid2 160 float 3;
#A 0 1 1 1 1 1 1 1 1 1 1 1 1 1 1 1 1 1 1 1 1 1 1 1 1 1 1 1 1 1 1 1 1 1 1 1 1 1 1 1 1 1 1 1 1 1 1 1 1 1 1 1 1 1 1 1 1 1 1 1 1 1 1 1 1 1 1 1 1 1 1 1 1 1 1 1 1 1 1 1 1 1 1 1 1 1 1 1 1 1 1 1 1 1 1 1 1 1 1 1 1 1 1 1 1 1 1 1 1 1 1 1 1 1 1 1 1 1 1 1 1 1 1 1 1 1 1 1 1 1 1 1 1 1 1 1 1 1 1 1 1 1 1 1 1 1 1 1 1 1 1 1 1 1 1 1 1 1 1 1 1;
#X coords 0 1 160 0 64 140 1 0 0;
#X restore 154 50 graph;
#N canvas 0 22 450 278 (subpatch) 0;
#X array \$0-eqHigh 320 float 3;
#A 0 1 1 1 1 1 1 1 1 1 1 1 1 1 1 1 1 1 1 1 1 1 1 1 1 1 1 1 1 1 1 1 1 1 1 1 1 1 1 1 1 1 1 1 1 1 1 1 1 1 1 1 1 1 1 1 1 1 1 1 1 1 1 1 1 1 1 1 1 1 1 1 1 1 1 1 1 1 1 1 1 1 1 1 1 1 1 1 1 1 1 1 1 1 1 1 1 1 1 1 1 1 1 1 1 1 1 1 1 1 1 1 1 1 1 1 1 1 1 1 1 1 1 1 1 1 1 1 1 1 1 1 1 1 1 1 1 1 1 1 1 1 1 1 1 1 1 1 1 1 1 1 1 1 1 1 1 1 1 1 1 1 1 1 1 1 1 1 1 1 1 1 1 1 1 1 1 1 1 1 1 1 1 1 1 1 1 1 1 1 1 1 1 1 1 1 1 1 1 1 1 1 1 1 1 1 1 1 1 1 1 1 1 1 1 1 1 1 1 1 1 1 1 1 1 1 1 1 1 1 1 1 1 1 1 1 1 1 1 1 1 1 1 1 1 1 1 1 1 1 1 1 1 1 1 1 1 1 1 1 1 1 1 1 1 1 1 1 1 1 1 1 1 1 1 1 1 1 1 1 1 1 1 1 1 1 1 1 1 1 1 1 1 1 1 1 1 1 1 1 1 1 1 1 1 1 1 1 1 1 1 1 1 1 1 1 1 1 1 1 1;
#X coords 0 1 320 0 64 140 1 0 0;
#X restore 218 50 graph;
#N canvas 0 100 450 278 (subpatch) 0;
#X array \$0-eqHighest 1496 float 3;
#A 0 1 1 1 1 1 1 1 1 1 1 1 1 1 1 1 1 1 1 1 1 1 1 1 1 1 1 1 1 1 1 1 1 1 1 1 1 1 1 1 1 1 1 1 1 1 1 1 1 1 1 1 1 1 1 1 1 1 1 1 1 1 1 1 1 1 1 1 1 1 1 1 1 1 1 1 1 1 1 1 1 1 1 1 1 1 1 1 1 1 1 1 1 1 1 1 1 1 1 1 1 1 1 1 1 1 1 1 1 1 1 1 1 1 1 1 1 1 1 1 1 1 1 1 1 1 1 1 1 1 1 1 1 1 1 1 1 1 1 1 1 1 1 1 1 1 1 1 1 1 1 1 1 1 1 1 1 1 1 1 1 1 1 1 1 1 1 1 1 1 1 1 1 1 1 1 1 1 1 1 1 1 1 1 1 1 1 1 1 1 1 1 1 1 1 1 1 1 1 1 1 1 1 1 1 1 1 1 1 1 1 1 1 1 1 1 1 1 1 1 1 1 1 1 1 1 1 1 1 1 1 1 1 1 1 1 1 1 1 1 1 1 1 1 1 1 1 1 1 1 1 1 1 1 1 1 1 1 1 1 1 1 1 1 1 1 1 1 1 1 1 1 1 1 1 1 1 1 1 1 1 1 1 1 1 1 1 1 1 1 1 1 1 1 1 1 1 1 1 1 1 1 1 1 1 1 1 1 1 1 1 1 1 1 1 1 1 1 1 1 1 1 1 1 1 1 1 1 1 1 1 1 1 1 1 1 1 1 1 1 1 1 1 1 1 1 1 1 1 1 1 1 1 1 1 1 1 1 1 1 1 1 1 1 1 1 1 1 1 1 1 1 1 1 1 1 1 1 1 1 1 1 1 1 1 1 1 1 1 1 1 1 1 1 1 1 1 1 1 1 1 1 1 1 1 1 1 1 1 1 1 1 1 1 1 1 1 1 1 1 1 1 1 1 1 1 1 1 1 1 1 1 1 1 1 1 1 1 1 1 1 1 1 1 1 1 1 1 1 1 1 1 1 1 1 1 1 1 1 1 1 1 1 1 1 1 1 1 1 1 1 1 1 1 1 1 1 1 1 1 1 1 1 1 1 1 1 1 1 1 1 1 1 1 1 1 1 1 1 1 1 1 1 1 1 1 1 1 1 1 1 1 1 1 1 1 1 1 1 1 1 1 1 1 1 1 1 1 1 1 1 1 1 1 1 1 1 1 1 1 1 1 1 1 1 1 1 1 1 1 1 1 1 1 1 1 1 1 1 1 1 1 1 1 1 1 1 1 1 1 1 1 1 1 1 1 1 1 1 1 1 1 1 1 1 1 1 1 1 1 1 1 1 1 1 1 1 1 1 1 1 1 1 1 1 1 1 1 1 1 1 1 1 1 1 1 1 1 1 1 1 1 1 1 1 1 1 1 1 1 1 1 1 1 1 1 1 1 1 1 1 1 1 1 1 1 1 1 1 1 1 1 1 1 1 1 1 1 1 1 1 1 1 1 1 1 1 1 1 1 1 1 1 1 1 1 1 1 1 1 1 1 1 1 1 1 1 1 1 1 1 1 1 1 1 1 1 1 1 1 1 1 1 1 1 1 1 1 1 1 1 1 1 1 1 1 1 1 1 1 1 1 1 1 1 1 1 1 1 1 1 1 1 1 1 1 1 1 1 1 1 1 1 1 1 1 1 1 1 1 1 1 1 1 1 1 1 1 1 1 1 1 1 1 1 1 1 1 1 1 1 1 1 1 1 1 1 1 1 1 1 1 1 1 1 1 1 1 1 1 1 1 1 1 1 1 1 1 1 1 1 1 1 1 1 1 1 1 1 1 1 1 1 1 1 1 1 1 1 1 1 1 1 1 1 1 1 1 1 1 1 1 1 1 1 1 1 1 1 1 1 1 1 1 1 1 1 1 1 1 1 1 1 1 1 1 1 1 1 1 1 1 1 1 1 1 1 1 1 1 1 1 1 1 1 1 1 1 1 1 1 1 1 1 1 1 1 1 1 1 1 1 1 1 1 1 1 1 1 1 1 1 1 1 1 1 1 1 1 1 1 1 1 1 1 1 1 1 1 1 1 1 1 1 1 1 1 1 1 1 1 1 1 1 1 1 1 1 1 1 1 1 1 1 1 1 1 1 1 1 1 1 1 1 1 1 1 1 1 1 1 1 1 1 1 1 1 1 1 1 1 1 1 1 1 1 1 1 1 1 1 1 1 1 1 1 1 1 1 1 1 1 1 1 1 1 1 1 1 1 1;
#A 1000 1 1 1 1 1 1 1 1 1 1 1 1 1 1 1 1 1 1 1 1 1 1 1 1 1 1 1 1 1 1 1 1 1 1 1 1 1 1 1 1 1 1 1 1 1 1 1 1 1 1 1 1 1 1 1 1 1 1 1 1 1 1 1 1 1 1 1 1 1 1 1 1 1 1 1 1 1 1 1 1 1 1 1 1 1 1 1 1 1 1 1 1 1 1 1 1 1 1 1 1 1 1 1 1 1 1 1 1 1 1 1 1 1 1 1 1 1 1 1 1 1 1 1 1 1 1 1 1 1 1 1 1 1 1 1 1 1 1 1 1 1 1 1 1 1 1 1 1 1 1 1 1 1 1 1 1 1 1 1 1 1 1 1 1 1 1 1 1 1 1 1 1 1 1 1 1 1 1 1 1 1 1 1 1 1 1 1 1 1 1 1 1 1 1 1 1 1 1 1 1 1 1 1 1 1 1 1 1 1 1 1 1 1 1 1 1 1 1 1 1 1 1 1 1 1 1 1 1 1 1 1 1 1 1 1 1 1 1 1 1 1 1 1 1 1 1 1 1 1 1 1 1 1 1 1 1 1 1 1 1 1 1 1 1 1 1 1 1 1 1 1 1 1 1 1 1 1 1 1 1 1 1 1 1 1 1 1 1 1 1 1 1 1 1 1 1 1 1 1 1 1 1 1 1 1 1 1 1 1 1 1 1 1 1 1 1 1 1 1 1 1 1 1 1 1 1 1 1 1 1 1 1 1 1 1 1 1 1 1 1 1 1 1 1 1 1 1 1 1 1 1 1 1 1 1 1 1 1 1 1 1 1 1 1 1 1 1 1 1 1 1 1 1 1 1 1 1 1 1 1 1 1 1 1 1 1 1 1 1 1 1 1 1 1 1 1 1 1 1 1 1 1 1 1 1 1 1 1 1 1 1 1 1 1 1 1 1 1 1 1 1 1 1 1 1 1 1 1 1 1 1 1 1 1 1 1 1 1 1 1 1 1 1 1 1 1 1 1 1 1 1 1 1 1 1 1 1 1 1 1 1 1 1 1 1 1 1 1 1 1 1 1 1 1 1 1 1 1 1 1 1 1 1 1 1 1 1 1 1 1 1 1 1 1 1 1;
#X coords 0 1 1496 0 64 140 1 0 0;
#X restore 283 50 graph;
#X restore 10 238 pd bandEqTables;
#X obj 415 48 hsl 100 12 0 1 0 0 \$0-const-sld-s \$0-const-sld-r empty -2 -6 0 10 #c4fcc4 #000000 #000000 0 1;
#X obj 278 3 loadbang;
#X msg 306 71 1;
#X obj 218 29 bng 15 250 50 0 empty empty empty 17 7 0 10 #000000 #0400fc #000000;
#X text 179 29 Reset;
#X text 141 2 Spectral Filter;
#X obj 601 19 bng 15 250 50 0 empty empty empty 17 7 0 10 #fcfcfc #000000 #000000;
#X obj 601 41 symbol \$0-eqLow;
#X obj 615 65 symbol \$0-eqMid1;
#X obj 630 94 symbol \$0-eqMid2;
#X obj 643 119 symbol \$0-eqHigh;
#X obj 660 146 symbol \$0-eqHighest;
#X obj 556 65 pack f s;
#X obj 570 94 pack f s;
#X obj 585 120 pack f s;
#X obj 598 146 pack f s;
#X obj 615 175 pack f s;
#X msg 439 316 \; \$2 const \$1 \;, f 14;
#X msg 439 266 \; \$2 const \$1 \;;
#X msg 439 216 \; \$2 const \$1 \;, f 14;
#X msg 439 166 \; \$2 const \$1 \;;
#X obj 412 83 s \$0-const \$1;
#X obj 124 48 cnv 15 109 122 empty empty empty 20 12 0 14 #7c7c7c #404040 0;
#N canvas 0 100 552 452 (subpatch) 0;
#X array \$0-gain 2048 float 2;
#X coords 0 1 2048 0 109 122 2 0 0;
#X restore 124 49 graph;
#X obj 278 31 t b b;
#X msg 439 116 \; \$2 const \$1 \;;
#X connect 0 0 4 0;
#X connect 1 0 4 1;
#X connect 2 0 4 2;
#X connect 3 0 4 3;
#X connect 5 0 4 4;
#X connect 7 0 19 0;
#X connect 7 0 20 0;
#X connect 7 0 21 0;
#X connect 7 0 22 0;
#X connect 7 0 23 0;
#X connect 7 0 28 0;
#X connect 8 0 31 0;
#X connect 9 0 7 0;
#X connect 10 0 9 0;
#X connect 13 0 14 0;
#X connect 13 0 15 0;
#X connect 13 0 16 0;
#X connect 13 0 17 0;
#X connect 13 0 18 0;
#X connect 14 0 19 1;
#X connect 15 0 20 1;
#X connect 16 0 21 1;
#X connect 17 0 22 1;
#X connect 18 0 23 1;
#X connect 19 0 32 0;
#X connect 20 0 27 0;
#X connect 21 0 26 0;
#X connect 22 0 25 0;
#X connect 23 0 24 0;
#X connect 31 0 9 0;
#X connect 31 1 13 0;
#X coords 0 -1 1 1 250 180 2 0 0;
#X restore 28 218 pd spectralEq;
#N canvas 0 542 330 176 audioStuff 0;
#N canvas 346 100 1411 735 phase-tables 0;
#N canvas 0 22 450 300 (subpatch) 0;
#X array prev-imag-left 4096 float 0;
#X coords 0 1000 4095 -1000 400 300 1 0 0;
#X restore 169 326 graph;
#N canvas 0 22 450 300 (subpatch) 0;
#X array prev-real-left 4096 float 0;
#X coords 0 500 4095 -500 400 300 1 0 0;
#X restore 170 17 graph;
#N canvas 0 22 450 300 (subpatch) 0;
#X array prev-imag-right 4096 float 0;
#X coords 0 1000 4095 -1000 400 300 1 0 0;
#X restore 589 325 graph;
#N canvas 0 22 450 300 (subpatch) 0;
#X array prev-real-right 4096 float 0;
#X coords 0 500 4095 -500 400 300 1 0 0;
#X restore 590 16 graph;
#X restore 15 4 pd phase-tables;
#N canvas 875 387 565 454 hann-window 0;
#N canvas 0 22 450 300 (subpatch) 0;
#X array \$0-hann 4096 float 0;
#X coords 0 1 4095 0 300 100 1;
#X restore 82 311 graph;
#X obj 378 165 osc~;
#X obj 378 190 *~ -0.5;
#X obj 378 214 +~ 0.5;
#X obj 331 247 tabwrite~ \$0-hann;
#X obj 38 173 /;
#X obj 127 142 samplerate~;
#X obj 177 204 swap;
#X obj 177 228 /;
#X obj 49 201 * 1000;
#X obj 38 115 t f b f;
#X msg 173 92 resize \$1;
#X obj 173 116 s \$0-hann;
#X msg 382 130 0;
#X obj 330 131 t f b;
#X text 15 8 calculate Hann window table (variable window size) and constants window-hz (fundamental frequency of analysis) \, window-sec and window-msec (analysis window size in seconds and msec).;
#X obj 38 251 s \$0-window-sec;
#X obj 49 228 s \$0-window-msec;
#X obj 177 252 s \$0-window-hz;
#X obj 37 88 r \$0-window-size;
#X obj 330 105 r \$0-window-hz;
#X connect 1 0 2 0;
#X connect 2 0 3 0;
#X connect 3 0 4 0;
#X connect 5 0 9 0;
#X connect 5 0 16 0;
#X connect 6 0 5 1;
#X connect 6 0 7 1;
#X connect 7 0 8 0;
#X connect 7 1 8 1;
#X connect 8 0 18 0;
#X connect 9 0 17 0;
#X connect 10 0 5 0;
#X connect 10 0 7 0;
#X connect 10 1 6 0;
#X connect 10 2 11 0;
#X connect 11 0 12 0;
#X connect 13 0 1 1;
#X connect 14 0 1 0;
#X connect 14 1 4 0;
#X connect 14 1 13 0;
#X connect 19 0 10 0;
#X connect 20 0 14 0;
#X restore 15 28 pd hann-window;
#X floatatom 16 146 5 0 0 0 - \$0-window-size - 0;
#X text 60 147 (check);
#X obj 16 76 bng 15 250 50 0 no-detune empty empty 0 -6 0 8 #fcfcfc #000000 #000000;
#X obj 16 53 loadbang;
#X msg 16 98 4096;
#X obj 16 122 s \$0-window-size;
#X connect 4 0 6 0;
#X connect 5 0 4 0;
#X connect 6 0 7 0;
#X restore 286 293 pd audioStuff;
#N canvas 681 250 906 391 mainWindowEngine 0;
#X floatatom 128 163 3 0 0 0 - speed-set - 0;
#X obj 39 119 bng 15 250 50 0 empty empty empty 0 -6 0 8 #fcfcfc #000000 #000000;
#X text 11 71 (motion in;
#X text 16 92 hundredths);
#X msg 9 141 100;
#X obj 209 248 t b f;
#X obj 112 139 float;
#X obj 112 113 t b f;
#X obj 367 124 >;
#X floatatom 367 99 15 0 0 0 - - - 0;
#X floatatom 484 103 15 0 0 0 - - - 0;
#X obj 485 201 / 44.1;
#X floatatom 485 226 15 0 0 0 - - - 0;
#X floatatom 367 152 5 0 0 0 - - - 0;
#X obj 367 173 select 0 1;
#X msg 406 197 0, f 4;
#X text 534 121 fine tuned for seamless loop but there is a small pause;
#X obj 524 155 samplerate~;
#X obj 524 177 / 1000;
#X obj 502 155 bng 15 250 50 0 empty empty empty 17 7 0 10 #fcfcfc #000000 #000000;
#X obj 484 127 t f b;
#X obj 484 79 r \$0-sample-length;
#X floatatom 379 293 5 0 0 0 - - - 0;
#X obj 379 270 expr $f1 / $f2;
#X obj 299 123 < 0;
#X obj 216 153 select 0 1;
#X obj 244 180 f;
#X obj 112 88 r \$0-widget_playbackSpeedControl;
#X obj 112 38 r \$0-playSpeed;
#X obj 112 58 s \$0-auto;
#X obj 112 183 s \$0-speed;
#X obj 39 141 s \$0-rewind;
#X obj 209 221 r \$0-widget_locationFromScrub;
#X obj 236 273 s \$0-location;
#X obj 367 54 r \$0-location-set-float;
#X obj 379 242 r \$0-location-set;
#X obj 379 317 s \$0-slider-time;
#X floatatom 162 124 5 0 0 0 - - - 0;
#X text 488 255 <<<<<<<<<;
#X obj 604 212 loadbang;
#X msg 604 233 1;
#X connect 0 0 30 0;
#X connect 1 0 4 0;
#X connect 1 0 31 0;
#X connect 4 0 30 0;
#X connect 5 0 6 0;
#X connect 5 1 33 0;
#X connect 6 0 30 0;
#X connect 7 0 6 0;
#X connect 7 1 6 1;
#X connect 8 0 13 0;
#X connect 9 0 8 0;
#X connect 9 0 24 0;
#X connect 10 0 20 0;
#X connect 11 0 12 0;
#X connect 12 0 8 1;
#X connect 12 0 23 1;
#X connect 12 0 26 1;
#X connect 13 0 14 0;
#X connect 14 1 15 0;
#X connect 15 0 5 0;
#X connect 17 0 18 0;
#X connect 18 0 11 1;
#X connect 19 0 17 0;
#X connect 20 0 11 0;
#X connect 20 1 19 0;
#X connect 21 0 10 0;
#X connect 22 0 36 0;
#X connect 23 0 22 0;
#X connect 24 0 25 0;
#X connect 25 1 26 0;
#X connect 26 0 5 0;
#X connect 27 0 7 0;
#X connect 27 0 37 0;
#X connect 28 0 29 0;
#X connect 32 0 5 0;
#X connect 34 0 9 0;
#X connect 35 0 23 0;
#X connect 39 0 40 0;
#X connect 40 0 23 1;
#X restore 286 318 pd mainWindowEngine;
#N canvas 349 644 596 197 select 0;
#X obj 7 17 hradio 15 1 0 9 \$0-transpo-rd-s \$0-transpo-rd-r empty 0 -8 0 10 #7c7c7c #fc8000 #000000 0;
#X obj 10 38 hsl 128 17 -4800 4800 0 0 \$0-transpo-sld-r \$0-transpo-sld-s empty -2 -8 0 10 #7c7c7c #fc8000 #fc0400 0 1;
#X floatatom 143 38 5 0 0 0 - - - 0;
#X text 42 1 Transposition in cents;
#X obj 7 81 s \$0-transpo;
#X obj 22 106 r \$0-transpo-msx;
#X obj 235 120 s \$0-transpo-msx;
#X obj 235 20 r \$0-transpo-rd-s;
#X obj 235 42 select 0 1 2 3 4 5 6 7 8, f 46;
#X msg 356 71 0;
#X obj 152 119 loadbang;
#X msg 152 145 4;
#X msg 417 71 2400;
#X msg 447 71 3600;
#X msg 477 71 4800;
#X msg 386 71 1200;
#X msg 326 71 -1200;
#X msg 295 71 -2400;
#X msg 265 71 -3600;
#X msg 235 71 -4800;
#X connect 1 0 2 0;
#X connect 1 0 4 0;
#X connect 2 0 4 0;
#X connect 5 0 1 0;
#X connect 7 0 8 0;
#X connect 8 0 19 0;
#X connect 8 1 18 0;
#X connect 8 2 17 0;
#X connect 8 3 16 0;
#X connect 8 4 9 0;
#X connect 8 5 15 0;
#X connect 8 6 12 0;
#X connect 8 7 13 0;
#X connect 8 8 14 0;
#X connect 9 0 6 0;
#X connect 10 0 11 0;
#X connect 11 0 0 0;
#X connect 12 0 6 0;
#X connect 13 0 6 0;
#X connect 14 0 6 0;
#X connect 15 0 6 0;
#X connect 16 0 6 0;
#X connect 17 0 6 0;
#X connect 18 0 6 0;
#X connect 19 0 6 0;
#X coords 0 -1 1 1 200 60 2 0 0;
#X restore 212 151 pd select speed;
#N canvas 0 101 450 300 phaseLock 0;
#X obj 6 25 tgl 30 0 empty empty empty 0 -6 0 8 #7c7c7c #fc8000 #000000 0 1;
#X obj 252 69 loadbang;
#X obj 198 47 r \$0-phaseLock;
#X obj 198 120 s \$0-lock;
#X text 6 4 Phase Lock;
#X msg 252 93 1;
#X connect 0 0 3 0;
#X connect 1 0 5 0;
#X connect 2 0 0 0;
#X connect 5 0 3 0;
#X coords 0 0 1 1 80 60 2 0 0;
#X restore 286 219 pd phaseLock;
#N canvas 439 155 771 602 spectralEngine 0;
#X obj 68 325 dac~ 1 2;
#N canvas 268 116 1098 817 fft-analysis 0;
#X obj 51 477 *~;
#X obj 18 477 *~;
#X obj 18 499 -~;
#X obj 167 475 *~;
#X obj 136 475 *~;
#X obj 136 497 +~;
#X obj 109 193 *~;
#X obj 78 193 *~;
#X obj 48 194 *~;
#X obj 19 193 *~;
#X obj 19 218 +~;
#X obj 127 379 *~;
#X obj 100 767 *~;
#X obj 393 82 rfft~;
#X obj 307 85 rfft~;
#X obj 100 791 outlet~;
#X obj 97 379 *~;
#X obj 97 401 +~;
#X obj 124 218 -~;
#X obj 18 431 *~;
#X obj 51 432 *~;
#X obj 19 349 +~ 1e-15;
#X obj 99 743 *~;
#X obj 144 719 tabreceive~ \$0-hann;
#X obj 899 242 loadbang;
#X msg 362 598 set \$1 4;
#X obj 97 425 q8_rsqrt~;
#N canvas 277 1 1195 799 read-windows 0;
#X obj 18 693 *~;
#X obj 166 303 f;
#X obj 195 695 *~;
#X obj 166 252 bang~;
#X obj 17 551 line~;
#X obj 102 164 * 1000;
#X obj 208 305 +;
#X obj 288 275 *;
#X obj 186 379 / 1000;
#X obj 149 400 *;
#X text 181 400 reading location (samples);
#X obj 51 597 / 4;
#X obj 288 245 * 0.01;
#X floatatom 340 498 7 0 0 0 - - - 0;
#X obj 340 474 *;
#X obj 502 429 mtof;
#X obj 502 451 / 440;
#X obj 375 474 t b f;
#X obj 19 719 outlet~;
#X obj 195 720 outlet~;
#X obj 218 664 tabreceive~ \$0-hann;
#X msg 803 409 0;
#X msg 768 532 set \$1;
#X text 411 498 stretched window size (samples);
#X msg 877 533 set \$1;
#X obj 808 140 t b f;
#X obj 826 257 f;
#X obj 754 171 int;
#X obj 754 203 sel 0;
#X msg 813 174 1;
#X msg 813 197 0;
#X floatatom 111 187 5 0 0 0 - - - 0;
#X obj 102 115 t f b;
#X obj 176 142 samplerate~;
#X obj 102 208 / 4;
#X obj 186 426 / 2;
#X obj 149 426 -;
#X text 239 417 back up 1/2 window;
#X obj 16 597 -~;
#X text 43 6 Read two windows out of the recorded sample \, one 1/4 ahead of the other. The mid point of the front window is specified by "location". If "speed" is nonzero \, "location" automatically precesses.;
#X obj 763 719 * -0.5;
#X text 81 601 "back" window 1/4 cycle behind "front" one;
#X text 137 205 computation period (msec) for overlap of 4;
#X text 164 186 msec in a window;
#X obj 763 665 /;
#X obj 763 690 * 1000;
#X obj 763 641 t f b;
#X obj 803 665 samplerate~;
#X obj 763 618 f;
#X text 326 275 loop to precess the location according;
#X text 328 297 to the "speed" parameter.;
#X text 611 31 if location changes \, update number box;
#X text 610 50 in main window via "location-set" \, but;
#X text 613 69 taking care to limit frequency of updates.;
#X text 756 462 reflect control changes;
#X text 756 479 in main window.;
#X text 754 344 setting location by hand;
#X text 752 362 sets speed to zero.;
#X text 948 635 misc controls;
#X text 496 527 "rewind" control takes us;
#X text 499 545 to a location depending on;
#X text 499 564 stretched window size.;
#X obj 16 469 f;
#X obj 17 496 pack;
#X obj 15 440 b;
#X msg 17 523 0 \, \$1 \$2;
#X obj 682 250 t f b;
#X obj 722 274 samplerate~;
#X obj 682 274 *;
#X obj 682 299 / 1000;
#X text 812 227 original delay is 300 but we need seamless loops !;
#X obj 754 228 del 10;
#X obj 376 696 *~;
#X obj 553 698 *~;
#X obj 377 722 outlet~;
#X obj 553 723 outlet~;
#X obj 576 667 tabreceive~ \$0-hann;
#X text 17 751 Left channel;
#X text 371 760 Right channel;
#X obj 17 637 tabread4~ \$0-sampleL;
#X obj 194 637 tabread4~ \$0-sampleL;
#X obj 375 640 tabread4~ \$0-sampleR;
#X obj 552 640 tabread4~ \$0-sampleR;
#X obj 501 361 * 0.01;
#X obj 501 408 + 69;
#X obj 288 222 r \$0-speed;
#X obj 803 432 s \$0-speed;
#X obj 877 558 s $-transpo-set;
#X obj 877 507 r \$0-transpo;
#X obj 768 508 r \$0-speed;
#X obj 768 557 s \$0-speed-set;
#X obj 763 585 r \$0-rewind;
#X obj 918 667 r \$0-no-detune;
#X obj 803 386 r \$0-location;
#X obj 935 303 s \$0-location-set-float;
#X obj 826 302 s \$0-location-set;
#X obj 682 320 s \$0-locationToApp;
#X obj 808 94 r \$0-location;
#X obj 817 116 r \$0-see-loc;
#X obj 102 91 r \$0-window-size;
#X obj 181 278 r \$0-location;
#X obj 226 327 s \$0-see-loc;
#X obj 340 448 r \$0-window-size;
#X obj 501 337 r \$0-transpo;
#X obj 1033 665 r \$0-auto;
#X obj 1033 690 t f b;
#X obj 1033 744 s \$0-speed;
#X obj 1060 720 s \$0-rewind;
#X obj 763 746 s \$0-location;
#X obj 918 706 s \$0-transpo;
#X obj 208 354 samplerate~;
#X obj 394 335 loadbang;
#X obj 394 358 delay 1000;
#X obj 42 301 r \$0-insamprate;
#X obj 102 139 / 48000;
#X connect 0 0 18 0;
#X connect 1 0 6 0;
#X connect 1 0 9 0;
#X connect 2 0 19 0;
#X connect 3 0 1 0;
#X connect 4 0 38 0;
#X connect 4 0 80 0;
#X connect 4 0 82 0;
#X connect 5 0 31 0;
#X connect 5 0 34 0;
#X connect 6 0 1 1;
#X connect 6 0 101 0;
#X connect 7 0 6 1;
#X connect 8 0 9 1;
#X connect 9 0 36 0;
#X connect 11 0 38 1;
#X connect 12 0 7 0;
#X connect 13 0 11 0;
#X connect 13 0 35 0;
#X connect 13 0 48 1;
#X connect 13 0 62 1;
#X connect 14 0 13 0;
#X connect 15 0 16 0;
#X connect 16 0 17 0;
#X connect 17 0 14 0;
#X connect 17 1 14 1;
#X connect 20 0 2 1;
#X connect 20 0 0 1;
#X connect 21 0 86 0;
#X connect 22 0 90 0;
#X connect 24 0 87 0;
#X connect 25 0 27 0;
#X connect 25 1 26 1;
#X connect 26 0 66 0;
#X connect 26 0 94 0;
#X connect 26 0 95 0;
#X connect 27 0 28 0;
#X connect 28 0 29 0;
#X connect 28 0 71 0;
#X connect 29 0 27 1;
#X connect 30 0 27 1;
#X connect 32 0 114 0;
#X connect 32 1 33 0;
#X connect 33 0 114 1;
#X connect 33 0 8 0;
#X connect 34 0 7 1;
#X connect 34 0 63 1;
#X connect 35 0 36 1;
#X connect 36 0 64 0;
#X connect 36 0 79 1;
#X connect 36 0 80 1;
#X connect 36 0 82 1;
#X connect 36 0 81 1;
#X connect 38 0 79 0;
#X connect 38 0 81 0;
#X connect 40 0 108 0;
#X connect 44 0 45 0;
#X connect 45 0 40 0;
#X connect 46 0 44 0;
#X connect 46 1 47 0;
#X connect 47 0 44 1;
#X connect 48 0 46 0;
#X connect 62 0 63 0;
#X connect 63 0 65 0;
#X connect 64 0 62 0;
#X connect 65 0 4 0;
#X connect 66 0 68 0;
#X connect 66 1 67 0;
#X connect 67 0 68 1;
#X connect 68 0 69 0;
#X connect 69 0 96 0;
#X connect 71 0 30 0;
#X connect 71 0 26 0;
#X connect 72 0 74 0;
#X connect 73 0 75 0;
#X connect 76 0 73 1;
#X connect 76 0 72 1;
#X connect 79 0 0 0;
#X connect 80 0 2 0;
#X connect 81 0 72 0;
#X connect 82 0 73 0;
#X connect 83 0 84 0;
#X connect 84 0 15 0;
#X connect 85 0 12 0;
#X connect 88 0 24 0;
#X connect 89 0 22 0;
#X connect 91 0 48 0;
#X connect 92 0 109 0;
#X connect 93 0 21 0;
#X connect 97 0 25 0;
#X connect 98 0 25 0;
#X connect 99 0 32 0;
#X connect 100 0 1 1;
#X connect 102 0 14 0;
#X connect 103 0 83 0;
#X connect 104 0 105 0;
#X connect 105 0 106 0;
#X connect 105 1 107 0;
#X connect 111 0 112 0;
#X connect 112 0 110 0;
#X connect 113 0 8 0;
#X connect 114 0 5 0;
#X restore 307 30 pd read-windows;
#X obj 121 69 *~;
#X obj 89 69 *~;
#X obj 89 91 +~;
#X obj 159 71 +~ 1e-20;
#X obj 85 139 *~;
#X obj 19 118 *~;
#X obj 29 245 lrshift~ 1;
#X obj 24 269 lrshift~ -1;
#X obj 141 245 lrshift~ 1;
#X obj 133 269 lrshift~ -1;
#X obj 35 300 *~;
#X obj 159 312 *~;
#X obj 19 325 +~;
#X obj 125 331 +~;
#X text 323 539 'set' message to block;
#X text 326 556 allows variable size;
#X obj 20 598 *~;
#X obj 82 596 *~;
#X floatatom 255 605 5 0 0 0 - - - 0;
#X obj 35 565 tabreceive~ \$0-gain;
#X obj 134 660 expr~ if($v1 > $f2 \, $v1 \, 0);
#X obj 96 635 expr~ if($v1 > $f2 \, $v1 \, 0);
#X text 347 492 Common;
#X obj 537 482 *~;
#X obj 504 482 *~;
#X obj 504 504 -~;
#X obj 653 480 *~;
#X obj 622 480 *~;
#X obj 622 502 +~;
#X obj 595 198 *~;
#X obj 564 198 *~;
#X obj 534 199 *~;
#X obj 505 198 *~;
#X obj 505 223 +~;
#X obj 613 384 *~;
#X obj 586 774 *~;
#X obj 879 87 rfft~;
#X obj 793 90 rfft~;
#X obj 586 798 outlet~;
#X obj 583 384 *~;
#X obj 583 406 +~;
#X obj 610 223 -~;
#X obj 504 436 *~;
#X obj 537 437 *~;
#X obj 505 354 +~ 1e-15;
#X obj 585 750 *~;
#X obj 630 726 tabreceive~ \$0-hann;
#X obj 693 795 expr 2/(3*$f1);
#X obj 583 430 q8_rsqrt~;
#X obj 607 74 *~;
#X obj 575 74 *~;
#X obj 575 96 +~;
#X obj 645 76 +~ 1e-20;
#X obj 571 141 *~;
#X obj 505 123 *~;
#X obj 515 250 lrshift~ 1;
#X obj 510 274 lrshift~ -1;
#X obj 627 250 lrshift~ 1;
#X obj 619 274 lrshift~ -1;
#X obj 521 305 *~;
#X obj 645 317 *~;
#X obj 505 330 +~;
#X obj 611 336 +~;
#X obj 506 603 *~;
#X obj 568 601 *~;
#X floatatom 763 606 5 0 0 0 - - - 0;
#X obj 521 570 tabreceive~ \$0-gain;
#X obj 650 663 expr~ if($v1 > $f2 \, $v1 \, 0);
#X obj 604 636 expr~ if($v1 > $f2 \, $v1 \, 0);
#X obj 159 101 rsqrt~;
#X obj 646 106 rsqrt~;
#X obj 73 29 tabreceive~ prev-imag-left;
#X obj 20 8 tabreceive~ prev-real-left;
#X obj 506 13 tabreceive~ prev-real-right;
#X obj 559 34 tabreceive~ prev-imag-right;
#X obj 141 521 tabsend~ prev-imag-left;
#X obj 60 543 tabsend~ prev-real-left;
#X obj 627 526 tabsend~ prev-imag-right;
#X obj 546 548 tabsend~ prev-real-right;
#X text 317 688 [outlet~] adds the overlaps!;
#X obj 99 689 rifft~;
#X obj 608 699 rifft~;
#X obj 362 623 block~;
#X obj 362 574 r \$0-window-size;
#X obj 693 774 r \$0-window-size;
#X obj 207 759 r \$0-window-size;
#X obj 255 578 r \$0-noiseGate;
#X obj 763 572 r \$0-noiseGate;
#X obj 181 290 r \$0-lock;
#X obj 667 295 r \$0-lock;
#X msg 950 309 \; pd dsp 1 \;;
#X msg 933 341 4096;
#X obj 933 364 s \$0-window-size;
#X obj 899 443 s \$0-rewind;
#X obj 916 416 s \$0-transpo;
#X msg 916 393 0;
#X obj 207 788 expr 2/(3*$f1);
#X obj 899 277 t b b b b;
#X connect 0 0 2 1;
#X connect 1 0 2 0;
#X connect 2 0 44 0;
#X connect 2 0 104 0;
#X connect 3 0 5 1;
#X connect 4 0 5 0;
#X connect 5 0 45 0;
#X connect 5 0 103 0;
#X connect 6 0 18 1;
#X connect 7 0 18 0;
#X connect 8 0 10 1;
#X connect 9 0 10 0;
#X connect 10 0 35 0;
#X connect 10 0 34 0;
#X connect 10 0 40 0;
#X connect 11 0 17 1;
#X connect 12 0 15 0;
#X connect 13 0 1 1;
#X connect 13 0 3 1;
#X connect 13 1 0 1;
#X connect 13 1 4 1;
#X connect 14 0 9 1;
#X connect 14 0 7 1;
#X connect 14 1 8 1;
#X connect 14 1 6 1;
#X connect 16 0 17 0;
#X connect 17 0 26 0;
#X connect 18 0 36 0;
#X connect 18 0 37 0;
#X connect 18 0 41 0;
#X connect 19 0 1 0;
#X connect 19 0 4 0;
#X connect 20 0 0 0;
#X connect 20 0 3 0;
#X connect 21 0 16 1;
#X connect 21 0 16 0;
#X connect 21 0 19 0;
#X connect 22 0 12 0;
#X connect 23 0 22 1;
#X connect 24 0 125 0;
#X connect 25 0 110 0;
#X connect 26 0 19 1;
#X connect 26 0 20 1;
#X connect 27 0 14 0;
#X connect 27 1 13 0;
#X connect 27 2 65 0;
#X connect 27 3 64 0;
#X connect 28 0 30 1;
#X connect 29 0 30 0;
#X connect 30 0 31 0;
#X connect 31 0 97 0;
#X connect 32 0 8 0;
#X connect 32 0 7 0;
#X connect 33 0 9 0;
#X connect 33 0 6 0;
#X connect 34 0 38 0;
#X connect 35 0 38 0;
#X connect 36 0 39 0;
#X connect 37 0 39 0;
#X connect 38 0 40 1;
#X connect 39 0 41 1;
#X connect 40 0 21 0;
#X connect 41 0 11 0;
#X connect 41 0 11 1;
#X connect 41 0 20 0;
#X connect 44 0 49 0;
#X connect 45 0 48 0;
#X connect 46 0 48 1;
#X connect 46 0 49 1;
#X connect 47 0 44 1;
#X connect 47 0 45 1;
#X connect 48 0 108 1;
#X connect 49 0 108 0;
#X connect 51 0 53 1;
#X connect 52 0 53 0;
#X connect 53 0 91 0;
#X connect 53 0 106 0;
#X connect 54 0 56 1;
#X connect 55 0 56 0;
#X connect 56 0 92 0;
#X connect 56 0 105 0;
#X connect 57 0 69 1;
#X connect 58 0 69 0;
#X connect 59 0 61 1;
#X connect 60 0 61 0;
#X connect 61 0 84 0;
#X connect 61 0 83 0;
#X connect 61 0 89 0;
#X connect 62 0 68 1;
#X connect 63 0 66 0;
#X connect 64 0 52 1;
#X connect 64 0 54 1;
#X connect 64 1 51 1;
#X connect 64 1 55 1;
#X connect 65 0 60 1;
#X connect 65 0 58 1;
#X connect 65 1 59 1;
#X connect 65 1 57 1;
#X connect 67 0 68 0;
#X connect 68 0 76 0;
#X connect 69 0 85 0;
#X connect 69 0 86 0;
#X connect 69 0 90 0;
#X connect 70 0 52 0;
#X connect 70 0 55 0;
#X connect 71 0 51 0;
#X connect 71 0 54 0;
#X connect 72 0 67 1;
#X connect 72 0 67 0;
#X connect 72 0 70 0;
#X connect 73 0 63 0;
#X connect 74 0 73 1;
#X connect 75 0 63 1;
#X connect 76 0 70 1;
#X connect 76 0 71 1;
#X connect 77 0 79 1;
#X connect 78 0 79 0;
#X connect 79 0 80 0;
#X connect 80 0 98 0;
#X connect 81 0 59 0;
#X connect 81 0 58 0;
#X connect 82 0 60 0;
#X connect 82 0 57 0;
#X connect 83 0 87 0;
#X connect 84 0 87 0;
#X connect 85 0 88 0;
#X connect 86 0 88 0;
#X connect 87 0 89 1;
#X connect 88 0 90 1;
#X connect 89 0 72 0;
#X connect 90 0 62 0;
#X connect 90 0 62 1;
#X connect 90 0 71 0;
#X connect 91 0 96 0;
#X connect 92 0 95 0;
#X connect 93 0 95 1;
#X connect 93 0 96 1;
#X connect 94 0 91 1;
#X connect 94 0 92 1;
#X connect 95 0 109 1;
#X connect 96 0 109 0;
#X connect 97 0 32 1;
#X connect 97 0 33 1;
#X connect 98 0 81 1;
#X connect 98 0 82 1;
#X connect 99 0 28 1;
#X connect 99 0 28 0;
#X connect 99 0 32 0;
#X connect 100 0 29 1;
#X connect 100 0 29 0;
#X connect 100 0 33 0;
#X connect 101 0 78 1;
#X connect 101 0 78 0;
#X connect 101 0 82 0;
#X connect 102 0 77 1;
#X connect 102 0 77 0;
#X connect 102 0 81 0;
#X connect 108 0 22 0;
#X connect 109 0 73 0;
#X connect 111 0 25 0;
#X connect 112 0 75 0;
#X connect 113 0 124 0;
#X connect 114 0 46 0;
#X connect 115 0 93 0;
#X connect 116 0 38 1;
#X connect 116 0 39 1;
#X connect 117 0 87 1;
#X connect 117 0 88 1;
#X connect 119 0 120 0;
#X connect 123 0 122 0;
#X connect 124 0 12 1;
#X connect 125 0 121 0;
#X connect 125 1 123 0;
#X connect 125 2 119 0;
#X connect 125 3 118 0;
#X restore 67 252 pd fft-analysis;
#X obj 113 298 *~;
#X obj 68 299 *~;
#X obj 15 51 vsl 20 100 0 1 0 0 empty empty Volume -9 -9 0 10 #7c7c7c #fc8000 #000000 0 1;
#X obj 201 -2 loadbang;
#X msg 201 20 0.75;
#X floatatom 9 177 8 0 0 2 Recording\ time \$0-rtime - 10;
#X msg 503 111 start;
#X msg 150 221 stop;
#X obj 168 368 writesf~ 2, f 15;
#X obj 457 12 t b b b;
#X obj 476 62 del 1000;
#X obj 197 61 bng 20 250 50 0 empty empty Start -12 -8 0 10 #ffffff #000000 #000000;
#X obj 168 150 bng 20 250 50 0 empty empty Stop -12 -8 0 10 #ffffff #000000 #000000;
#X obj 172 280 *~;
#X obj 144 321 *~;
#X obj 476 84 t b b;
#X obj 195 227 line~ 0 \, 1 50;
#X msg 252 203 0 \, 1 50;
#X msg 195 203 1 \, 0 50;
#X obj 150 202 del 50;
#X obj 60 110 image images/stop.png 1;
#X obj 5 4 cnv 16 90 20 empty \$0-recording Record\ to\ file 3 10 0 10 #9f9f9f #404040 0;
#X msg 456 234 label \$1;
#X obj 456 212 makefilename %s;
#X obj 456 258 s \$0-recording;
#X obj 168 174 t b b b;
#X msg 316 341 label \$1;
#X obj 316 319 makefilename %s;
#X obj 316 365 s \$0-recording;
#X obj 456 187 symbol recording...;
#X obj 316 279 symbol Record\ to\ file;
#X msg 73 368 stop;
#X msg 39 369 1;
#X obj 38 439 int;
#X floatatom 38 486 5 0 0 0 - - - 0;
#X msg 76 392 0;
#X obj 17 390 t 1 0;
#X floatatom 38 527 5 0 0 0 - - \$0-rtime 0;
#X obj 38 506 - 2;
#X obj 39 415 metro 1;
#X obj 38 460 + 1;
#X text 58 180 ms;
#X obj 308 66 bng 16 250 50 0 empty empty empty 0 -8 0 10 #fcfcfc #000000 #000000;
#X obj 308 89 int;
#X obj 308 110 + 1;
#X floatatom 308 131 5 0 0 0 - - - 0;
#X obj 345 65 loadbang;
#X msg 345 86 0;
#X obj 60 53 image images/rec.png 1;
#X text 63 36 Rec;
#X text 59 94 Stop;
#X obj 658 254 makefilename %s;
#X obj 640 188 realtime;
#X obj 357 168 bng 16 250 50 0 empty empty empty 0 -8 0 10 #fcfcfc #000000 #000000;
#X obj 560 253 makefilename %s;
#X obj 524 332 pack s s;
#X msg 497 42 open -bytes 3 ./recordings/\$1;
#X msg 524 358 \$1-\$2-out;
#X obj 524 379 symbol \$1;
#X obj 396 404 makefilename %s.wav;
#X connect 1 0 3 0;
#X connect 1 0 16 0;
#X connect 1 1 2 0;
#X connect 1 1 15 0;
#X connect 2 0 0 1;
#X connect 3 0 0 0;
#X connect 4 0 3 1;
#X connect 4 0 2 1;
#X connect 5 0 6 0;
#X connect 6 0 4 0;
#X connect 8 0 10 0;
#X connect 9 0 10 0;
#X connect 11 0 31 0;
#X connect 11 1 12 0;
#X connect 11 2 44 0;
#X connect 12 0 17 0;
#X connect 13 0 11 0;
#X connect 13 0 34 0;
#X connect 14 0 27 0;
#X connect 15 0 10 1;
#X connect 16 0 10 0;
#X connect 17 0 19 0;
#X connect 17 1 8 0;
#X connect 18 0 16 1;
#X connect 18 0 15 1;
#X connect 19 0 18 0;
#X connect 20 0 18 0;
#X connect 21 0 9 0;
#X connect 22 0 14 0;
#X connect 24 0 26 0;
#X connect 25 0 24 0;
#X connect 27 0 32 0;
#X connect 27 0 33 0;
#X connect 27 1 21 0;
#X connect 27 2 20 0;
#X connect 28 0 30 0;
#X connect 29 0 28 0;
#X connect 31 0 25 0;
#X connect 32 0 29 0;
#X connect 33 0 37 0;
#X connect 34 0 38 0;
#X connect 35 0 42 0;
#X connect 36 0 35 1;
#X connect 36 0 40 0;
#X connect 37 0 41 0;
#X connect 38 0 41 0;
#X connect 38 1 35 1;
#X connect 38 1 36 0;
#X connect 40 0 39 0;
#X connect 41 0 35 0;
#X connect 42 0 36 0;
#X connect 44 0 45 0;
#X connect 45 0 46 0;
#X connect 46 0 47 0;
#X connect 47 0 45 1;
#X connect 47 0 55 0;
#X connect 47 0 56 0;
#X connect 48 0 49 0;
#X connect 48 0 54 0;
#X connect 49 0 45 1;
#X connect 50 0 13 0;
#X connect 53 0 57 1;
#X connect 54 0 53 0;
#X connect 55 0 54 1;
#X connect 56 0 57 0;
#X connect 57 0 59 0;
#X connect 58 0 10 0;
#X connect 59 0 60 0;
#X connect 60 0 61 0;
#X connect 61 0 58 0;
#X coords 0 -1 1 1 100 200 2 0 0;
#X restore 352 389 pd spectralEngine;
#X text 369 612 2018-2024 © Wandersound;
#X obj 14 12 image images/bckg.png 0;
#X coords 0 632 1 631 85 60 0;
